# xmcd
#
# Track frame offsets:
#       150
#       14337
#       27616
#       50935
#       62932
#       74888
#       90045
#       105233
#       122546
#       134129
#       146048
#       159546
#       173205
#       186388
#       205817
#       220419
#       232490
#       245527
#       265668
#       277549
#
# Disc length: 3835 seconds
#
# Revision: 0
# Processed by: cddbd v1.5.1PL2 Copyright (c) Steve Scherf et al.
# Submitted via: CD-DA_X-Tractor v0.24
#
DISCID=380ef914
DTITLE=Various Artist - Soul Legends CD 2
DYEAR=2006
DGENRE=Soul
TTITLE0=Billy Ocean - Love Really Hurts Without You
TTITLE1=Jimmy Ruffin - It's Wonderful
TTITLE2=Three Degrees - Woman In Love
TTITLE3=Platters - Only You
TTITLE4=Mary Wells - My Guy
TTITLE5=Detroit Emeralds - Feel The Need In Me
TTITLE6=Tymes - Ms Grace
TTITLE7=Candi Staton - Nights On Broadway
TTITLE8=Clarence Henry - You Always Hurt The One You Love
TTITLE9=Fantastics - Something Old Something New
TTITLE10=Supremes - Nathan Jones
TTITLE11=Clarence Carter - Patches
TTITLE12=Percy Sledge - When A Man Loves A Woman
TTITLE13=Odyssey - If You're Looking For A Way Out
TTITLE14=Marv Johnson - I'll Pick A Rose For My Rose
TTITLE15=Brook Benton - Kiddo
TTITLE16=Marvelettes - When You're Young And In Love
TTITLE17=Syreeta - With You I'm Born Again
TTITLE18=Sam And Dave - Soul Sister Brown Sugar
TTITLE19=Drifters - Save The Last Dance For Me
EXTD=
EXTT0=
EXTT1=
EXTT2=
EXTT3=
EXTT4=
EXTT5=
EXTT6=
EXTT7=
EXTT8=
EXTT9=
EXTT10=
EXTT11=
EXTT12=
EXTT13=
EXTT14=
EXTT15=
EXTT16=
EXTT17=
EXTT18=
EXTT19=
PLAYORDER=
